# xmcd
#
# Track frame offsets:
#	150
#	22744
#	41139
#	56407
#
# Disc length: 1035 seconds
#
# Revision: 0
# Processed by: cddbd v1.4PL0 Copyright (c) Steve Scherf et al.
# Submitted via: audiograbber 1.80.04
#
DISCID=27040904
DTITLE=Croz Sclizzâz - s/t
DYEAR=1999
DGENRE=folk
TTITLE0=Plagnis di Otubar
TTITLE1=Vecjo Pezzent
TTITLE2=Prime
TTITLE3=Bluus Stonât
EXTD=
EXTT0=
EXTT1=
EXTT2=
EXTT3=
PLAYORDER=
